<svg xmlns="http://www.w3.org/2000/svg" xmlns:xlink="http://www.w3.org/1999/xlink" width="500" zoomAndPan="magnify" viewBox="0 0 375 374.999991" height="500" preserveAspectRatio="xMidYMid meet" version="1.0"><defs><clipPath id="29bf480611"><path d="M 79.003906 79.003906 L 178 79.003906 L 178 171 L 79.003906 171 Z M 79.003906 79.003906 " clip-rule="nonzero"/></clipPath><clipPath id="85cc8763f2"><path d="M 197 79.003906 L 295.753906 79.003906 L 295.753906 171 L 197 171 Z M 197 79.003906 " clip-rule="nonzero"/></clipPath><clipPath id="b5d93b3ecc"><path d="M 197 204 L 295.753906 204 L 295.753906 295.753906 L 197 295.753906 Z M 197 204 " clip-rule="nonzero"/></clipPath><clipPath id="17fdff449a"><path d="M 79.003906 204 L 178 204 L 178 295.753906 L 79.003906 295.753906 Z M 79.003906 204 " clip-rule="nonzero"/></clipPath></defs><g clip-path="url(#29bf480611)"><path fill="#000000" d="M 89.164062 170.445312 C 94.921875 170.445312 99.324219 166.042969 99.324219 160.285156 C 99.324219 155.882812 96.617188 152.15625 92.550781 150.804688 L 92.550781 126.417969 L 120.324219 126.417969 C 121.675781 130.484375 125.402344 133.191406 129.804688 133.191406 C 135.5625 133.191406 139.964844 128.789062 139.964844 123.03125 C 139.964844 117.273438 135.5625 112.871094 129.804688 112.871094 C 125.402344 112.871094 121.675781 115.582031 120.324219 119.644531 L 112.871094 119.644531 L 112.871094 92.550781 L 157.578125 92.550781 C 158.929688 96.617188 162.65625 99.324219 167.058594 99.324219 C 172.816406 99.324219 177.21875 94.921875 177.21875 89.164062 C 177.21875 83.40625 172.816406 79.003906 167.058594 79.003906 C 162.65625 79.003906 158.929688 81.714844 157.578125 85.777344 L 109.484375 85.777344 C 107.453125 85.777344 106.097656 87.132812 106.097656 89.164062 L 106.097656 119.644531 L 89.164062 119.644531 C 87.132812 119.644531 85.777344 121 85.777344 123.03125 L 85.777344 150.804688 C 81.714844 152.15625 79.003906 155.882812 79.003906 160.285156 C 79.003906 166.042969 83.40625 170.445312 89.164062 170.445312 Z M 167.058594 85.777344 C 169.089844 85.777344 170.445312 87.132812 170.445312 89.164062 C 170.445312 91.195312 169.089844 92.550781 167.058594 92.550781 C 165.027344 92.550781 163.671875 91.195312 163.671875 89.164062 C 163.671875 87.132812 165.027344 85.777344 167.058594 85.777344 Z M 129.804688 119.644531 C 131.835938 119.644531 133.191406 121 133.191406 123.03125 C 133.191406 125.0625 131.835938 126.417969 129.804688 126.417969 C 127.773438 126.417969 126.417969 125.0625 126.417969 123.03125 C 126.417969 121 127.773438 119.644531 129.804688 119.644531 Z M 89.164062 156.898438 C 91.195312 156.898438 92.550781 158.253906 92.550781 160.285156 C 92.550781 162.316406 91.195312 163.671875 89.164062 163.671875 C 87.132812 163.671875 85.777344 162.316406 85.777344 160.285156 C 85.777344 158.253906 87.132812 156.898438 89.164062 156.898438 Z M 89.164062 156.898438 " fill-opacity="1" fill-rule="nonzero"/></g><g clip-path="url(#85cc8763f2)"><path fill="#000000" d="M 207.699219 99.324219 C 212.101562 99.324219 215.828125 96.617188 217.183594 92.550781 L 261.886719 92.550781 L 261.886719 119.644531 L 254.4375 119.644531 C 253.082031 115.582031 249.355469 112.871094 244.953125 112.871094 C 239.195312 112.871094 234.792969 117.273438 234.792969 123.03125 C 234.792969 128.789062 239.195312 133.191406 244.953125 133.191406 C 249.355469 133.191406 253.082031 130.484375 254.4375 126.417969 L 282.207031 126.417969 L 282.207031 150.804688 C 278.144531 152.15625 275.433594 155.882812 275.433594 160.285156 C 275.433594 166.042969 279.835938 170.445312 285.59375 170.445312 C 291.351562 170.445312 295.753906 166.042969 295.753906 160.285156 C 295.753906 155.882812 293.046875 152.15625 288.980469 150.804688 L 288.980469 123.03125 C 288.980469 121 287.625 119.644531 285.59375 119.644531 L 268.660156 119.644531 L 268.660156 89.164062 C 268.660156 87.132812 267.304688 85.777344 265.273438 85.777344 L 217.183594 85.777344 C 215.828125 81.714844 212.101562 79.003906 207.699219 79.003906 C 201.941406 79.003906 197.539062 83.40625 197.539062 89.164062 C 197.539062 94.921875 201.941406 99.324219 207.699219 99.324219 Z M 285.59375 163.671875 C 283.5625 163.671875 282.207031 162.316406 282.207031 160.285156 C 282.207031 158.253906 283.5625 156.898438 285.59375 156.898438 C 287.625 156.898438 288.980469 158.253906 288.980469 160.285156 C 288.980469 162.316406 287.625 163.671875 285.59375 163.671875 Z M 244.953125 126.417969 C 242.921875 126.417969 241.566406 125.0625 241.566406 123.03125 C 241.566406 121 242.921875 119.644531 244.953125 119.644531 C 246.984375 119.644531 248.339844 121 248.339844 123.03125 C 248.339844 125.0625 246.984375 126.417969 244.953125 126.417969 Z M 207.699219 85.777344 C 209.730469 85.777344 211.085938 87.132812 211.085938 89.164062 C 211.085938 91.195312 209.730469 92.550781 207.699219 92.550781 C 205.667969 92.550781 204.3125 91.195312 204.3125 89.164062 C 204.3125 87.132812 205.667969 85.777344 207.699219 85.777344 Z M 207.699219 85.777344 " fill-opacity="1" fill-rule="nonzero"/></g><g clip-path="url(#b5d93b3ecc)"><path fill="#000000" d="M 285.59375 204.3125 C 279.835938 204.3125 275.433594 208.714844 275.433594 214.472656 C 275.433594 218.875 278.144531 222.601562 282.207031 223.957031 L 282.207031 248.339844 L 254.4375 248.339844 C 253.082031 244.277344 249.355469 241.566406 244.953125 241.566406 C 239.195312 241.566406 234.792969 245.96875 234.792969 251.726562 C 234.792969 257.484375 239.195312 261.886719 244.953125 261.886719 C 249.355469 261.886719 253.082031 259.179688 254.4375 255.113281 L 261.886719 255.113281 L 261.886719 282.207031 L 217.183594 282.207031 C 215.828125 278.144531 212.101562 275.433594 207.699219 275.433594 C 201.941406 275.433594 197.539062 279.835938 197.539062 285.59375 C 197.539062 291.351562 201.941406 295.753906 207.699219 295.753906 C 212.101562 295.753906 215.828125 293.046875 217.183594 288.980469 L 265.273438 288.980469 C 267.304688 288.980469 268.660156 287.625 268.660156 285.59375 L 268.660156 255.113281 L 285.59375 255.113281 C 287.625 255.113281 288.980469 253.757812 288.980469 251.726562 L 288.980469 223.957031 C 293.046875 222.601562 295.753906 218.875 295.753906 214.472656 C 295.753906 208.714844 291.351562 204.3125 285.59375 204.3125 Z M 207.699219 288.980469 C 205.667969 288.980469 204.3125 287.625 204.3125 285.59375 C 204.3125 283.5625 205.667969 282.207031 207.699219 282.207031 C 209.730469 282.207031 211.085938 283.5625 211.085938 285.59375 C 211.085938 287.625 209.730469 288.980469 207.699219 288.980469 Z M 244.953125 255.113281 C 242.921875 255.113281 241.566406 253.757812 241.566406 251.726562 C 241.566406 249.695312 242.921875 248.339844 244.953125 248.339844 C 246.984375 248.339844 248.339844 249.695312 248.339844 251.726562 C 248.339844 253.757812 246.984375 255.113281 244.953125 255.113281 Z M 285.59375 217.859375 C 283.5625 217.859375 282.207031 216.503906 282.207031 214.472656 C 282.207031 212.441406 283.5625 211.085938 285.59375 211.085938 C 287.625 211.085938 288.980469 212.441406 288.980469 214.472656 C 288.980469 216.503906 287.625 217.859375 285.59375 217.859375 Z M 285.59375 217.859375 " fill-opacity="1" fill-rule="nonzero"/></g><g clip-path="url(#17fdff449a)"><path fill="#000000" d="M 167.058594 275.433594 C 162.65625 275.433594 158.929688 278.144531 157.578125 282.207031 L 112.871094 282.207031 L 112.871094 255.113281 L 120.324219 255.113281 C 121.675781 259.179688 125.402344 261.886719 129.804688 261.886719 C 135.5625 261.886719 139.964844 257.484375 139.964844 251.726562 C 139.964844 245.96875 135.5625 241.566406 129.804688 241.566406 C 125.402344 241.566406 121.675781 244.277344 120.324219 248.339844 L 92.550781 248.339844 L 92.550781 223.957031 C 96.617188 222.601562 99.324219 218.875 99.324219 214.472656 C 99.324219 208.714844 94.921875 204.3125 89.164062 204.3125 C 83.40625 204.3125 79.003906 208.714844 79.003906 214.472656 C 79.003906 218.875 81.714844 222.601562 85.777344 223.957031 L 85.777344 251.726562 C 85.777344 253.757812 87.132812 255.113281 89.164062 255.113281 L 106.097656 255.113281 L 106.097656 285.59375 C 106.097656 287.625 107.453125 288.980469 109.484375 288.980469 L 157.578125 288.980469 C 158.929688 293.046875 162.65625 295.753906 167.058594 295.753906 C 172.816406 295.753906 177.21875 291.351562 177.21875 285.59375 C 177.21875 279.835938 172.816406 275.433594 167.058594 275.433594 Z M 89.164062 211.085938 C 91.195312 211.085938 92.550781 212.441406 92.550781 214.472656 C 92.550781 216.503906 91.195312 217.859375 89.164062 217.859375 C 87.132812 217.859375 85.777344 216.503906 85.777344 214.472656 C 85.777344 212.441406 87.132812 211.085938 89.164062 211.085938 Z M 129.804688 248.339844 C 131.835938 248.339844 133.191406 249.695312 133.191406 251.726562 C 133.191406 253.757812 131.835938 255.113281 129.804688 255.113281 C 127.773438 255.113281 126.417969 253.757812 126.417969 251.726562 C 126.417969 249.695312 127.773438 248.339844 129.804688 248.339844 Z M 167.058594 288.980469 C 165.027344 288.980469 163.671875 287.625 163.671875 285.59375 C 163.671875 283.5625 165.027344 282.207031 167.058594 282.207031 C 169.089844 282.207031 170.445312 283.5625 170.445312 285.59375 C 170.445312 287.625 169.089844 288.980469 167.058594 288.980469 Z M 167.058594 288.980469 " fill-opacity="1" fill-rule="nonzero"/></g><path fill="#000000" d="M 153.511719 150.125 C 151.480469 150.125 150.125 151.480469 150.125 153.511719 L 150.125 221.246094 C 150.125 223.277344 151.480469 224.632812 153.511719 224.632812 L 221.246094 224.632812 C 223.277344 224.632812 224.632812 223.277344 224.632812 221.246094 L 224.632812 153.511719 C 224.632812 151.480469 223.277344 150.125 221.246094 150.125 Z M 217.859375 217.859375 L 156.898438 217.859375 L 156.898438 156.898438 L 217.859375 156.898438 Z M 217.859375 217.859375 " fill-opacity="1" fill-rule="nonzero"/><path fill="#000000" d="M 170.445312 136.578125 L 170.445312 123.03125 L 163.671875 123.03125 L 163.671875 136.578125 L 139.964844 136.578125 C 137.933594 136.578125 136.578125 137.933594 136.578125 139.964844 L 136.578125 163.671875 L 119.644531 163.671875 L 119.644531 170.445312 L 143.351562 170.445312 L 143.351562 143.351562 L 231.40625 143.351562 L 231.40625 170.445312 L 255.113281 170.445312 L 255.113281 163.671875 L 238.179688 163.671875 L 238.179688 139.964844 C 238.179688 137.933594 236.824219 136.578125 234.792969 136.578125 L 211.085938 136.578125 L 211.085938 123.03125 L 204.3125 123.03125 L 204.3125 136.578125 L 190.765625 136.578125 L 190.765625 123.03125 L 183.992188 123.03125 L 183.992188 136.578125 Z M 170.445312 136.578125 " fill-opacity="1" fill-rule="nonzero"/><path fill="#000000" d="M 204.3125 238.179688 L 204.3125 251.726562 L 211.085938 251.726562 L 211.085938 238.179688 L 234.792969 238.179688 C 236.824219 238.179688 238.179688 236.824219 238.179688 234.792969 L 238.179688 211.085938 L 255.113281 211.085938 L 255.113281 204.3125 L 231.40625 204.3125 L 231.40625 231.40625 L 143.351562 231.40625 L 143.351562 204.3125 L 119.644531 204.3125 L 119.644531 211.085938 L 136.578125 211.085938 L 136.578125 234.792969 C 136.578125 236.824219 137.933594 238.179688 139.964844 238.179688 L 163.671875 238.179688 L 163.671875 251.726562 L 170.445312 251.726562 L 170.445312 238.179688 L 183.992188 238.179688 L 183.992188 251.726562 L 190.765625 251.726562 L 190.765625 238.179688 Z M 204.3125 238.179688 " fill-opacity="1" fill-rule="nonzero"/><path fill="#000000" d="M 173.832031 194.152344 L 180.605469 194.152344 L 180.605469 200.925781 L 187.378906 200.925781 L 187.378906 177.21875 C 187.378906 175.1875 186.023438 173.832031 183.992188 173.832031 L 170.445312 173.832031 C 168.414062 173.832031 167.058594 175.1875 167.058594 177.21875 L 167.058594 200.925781 L 173.832031 200.925781 Z M 180.605469 180.605469 L 180.605469 187.378906 L 173.832031 187.378906 L 173.832031 180.605469 Z M 180.605469 180.605469 " fill-opacity="1" fill-rule="nonzero"/><path fill="#000000" d="M 207.699219 194.152344 L 204.3125 194.152344 L 204.3125 180.605469 L 207.699219 180.605469 L 207.699219 173.832031 L 194.152344 173.832031 L 194.152344 180.605469 L 197.539062 180.605469 L 197.539062 194.152344 L 194.152344 194.152344 L 194.152344 200.925781 L 207.699219 200.925781 Z M 207.699219 194.152344 " fill-opacity="1" fill-rule="nonzero"/><path fill="#000000" d="M 231.40625 183.992188 L 255.113281 183.992188 L 255.113281 190.765625 L 231.40625 190.765625 Z M 231.40625 183.992188 " fill-opacity="1" fill-rule="nonzero"/><path fill="#000000" d="M 119.644531 183.992188 L 143.351562 183.992188 L 143.351562 190.765625 L 119.644531 190.765625 Z M 119.644531 183.992188 " fill-opacity="1" fill-rule="nonzero"/></svg>